REM DIRINDEX 1\5,1\2\6,1\2\7,1\3\8,1\3\9,1\4\10,1\4\11,1\4\12
REM DIRNAME cjc026,folder01,folder02,folder03,folder04,folder05,folder06,folder07,folder08,folder09,folder10,folder11
TITLE ""
FILE "EJE_DB3000_5th_6C_47.mp3" MP3
  TRACK 01 AUDIO
    TITLE "0:"
    INDEX 01 00:00:00
  TRACK 02 AUDIO
    TITLE "10:cjc026_11973"
    INDEX 01 00:00:08
  TRACK 03 AUDIO
    TITLE "0:"
    INDEX 01 00:02:01
  TRACK 04 AUDIO
    TITLE "11:cjc026_11974"
    INDEX 01 00:02:33
  TRACK 05 AUDIO
    TITLE "0:"
    INDEX 01 00:04:07
  TRACK 06 AUDIO
    TITLE "12:cjc026_11975"
    INDEX 01 00:04:40
  TRACK 07 AUDIO
    TITLE "0:"
    INDEX 01 00:06:33
  TRACK 08 AUDIO
    TITLE "10:cjc026_11976"
    INDEX 01 00:06:65
  TRACK 09 AUDIO
    TITLE "0:"
    INDEX 01 00:09:27
  TRACK 10 AUDIO
    TITLE "11:cjc026_11977"
    INDEX 01 00:09:59
  TRACK 11 AUDIO
    TITLE "0:"
    INDEX 01 00:11:60
  TRACK 12 AUDIO
    TITLE "12:cjc026_11978"
    INDEX 01 00:12:20
  TRACK 13 AUDIO
    TITLE "0:"
    INDEX 01 00:14:54
  TRACK 14 AUDIO
    TITLE "10:cjc026_11979"
    INDEX 01 00:15:11
  TRACK 15 AUDIO
    TITLE "0:"
    INDEX 01 00:16:41
  TRACK 16 AUDIO
    TITLE "11:cjc026_11980"
    INDEX 01 00:16:74
  TRACK 17 AUDIO
    TITLE "0:"
    INDEX 01 00:19:14
  TRACK 18 AUDIO
    TITLE "12:cjc026_11981"
    INDEX 01 00:19:46
  TRACK 19 AUDIO
    TITLE "0:"
    INDEX 01 00:21:01
  TRACK 20 AUDIO
    TITLE "10:cjc026_11982"
    INDEX 01 00:21:34
  TRACK 21 AUDIO
    TITLE "0:"
    INDEX 01 00:22:64
  TRACK 22 AUDIO
    TITLE "11:cjc026_11983"
    INDEX 01 00:23:24
  TRACK 23 AUDIO
    TITLE "0:"
    INDEX 01 00:24:71
  TRACK 24 AUDIO
    TITLE "12:cjc026_11984"
    INDEX 01 00:25:31
  TRACK 25 AUDIO
    TITLE "0:"
    INDEX 01 00:26:61
  TRACK 26 AUDIO
    TITLE "10:cjc026_11985"
    INDEX 01 00:27:21
  TRACK 27 AUDIO
    TITLE "0:"
    INDEX 01 00:28:60
  TRACK 28 AUDIO
    TITLE "11:cjc026_11986"
    INDEX 01 00:29:20
  TRACK 29 AUDIO
    TITLE "0:"
    INDEX 01 00:30:53
  TRACK 30 AUDIO
    TITLE "12:cjc026_11987"
    INDEX 01 00:31:13
  TRACK 31 AUDIO
    TITLE "0:"
    INDEX 01 00:32:51
  TRACK 32 AUDIO
    TITLE "10:cjc026_11988"
    INDEX 01 00:33:11
  TRACK 33 AUDIO
    TITLE "0:"
    INDEX 01 00:34:33
  TRACK 34 AUDIO
    TITLE "11:cjc026_11989"
    INDEX 01 00:34:69
  TRACK 35 AUDIO
    TITLE "0:"
    INDEX 01 00:36:27
  TRACK 36 AUDIO
    TITLE "12:cjc026_11990"
    INDEX 01 00:36:59
  TRACK 37 AUDIO
    TITLE "0:"
    INDEX 01 00:38:09
  TRACK 38 AUDIO
    TITLE "10:cjc026_11991"
    INDEX 01 00:38:41
  TRACK 39 AUDIO
    TITLE "0:"
    INDEX 01 00:39:66
  TRACK 40 AUDIO
    TITLE "11:cjc026_11992"
    INDEX 01 00:40:24
  TRACK 41 AUDIO
    TITLE "0:"
    INDEX 01 00:42:03
  TRACK 42 AUDIO
    TITLE "12:cjc026_11993"
    INDEX 01 00:42:36
  TRACK 43 AUDIO
    TITLE "0:"
    INDEX 01 00:43:60
  TRACK 44 AUDIO
    TITLE "10:cjc026_11994"
    INDEX 01 00:44:21
  TRACK 45 AUDIO
    TITLE "0:"
    INDEX 01 00:45:72
  TRACK 46 AUDIO
    TITLE "11:cjc026_11995"
    INDEX 01 00:46:33
  TRACK 47 AUDIO
    TITLE "0:"
    INDEX 01 00:47:74
  TRACK 48 AUDIO
    TITLE "12:cjc026_11996"
    INDEX 01 00:48:31
  TRACK 49 AUDIO
    TITLE "0:"
    INDEX 01 00:50:11
  TRACK 50 AUDIO
    TITLE "10:cjc026_11997"
    INDEX 01 00:50:43
  TRACK 51 AUDIO
    TITLE "0:"
    INDEX 01 00:52:09
  TRACK 52 AUDIO
    TITLE "11:cjc026_11998"
    INDEX 01 00:52:44
  TRACK 53 AUDIO
    TITLE "0:"
    INDEX 01 00:54:24
  TRACK 54 AUDIO
    TITLE "12:cjc026_11999"
    INDEX 01 00:54:56
  TRACK 55 AUDIO
    TITLE "0:"
    INDEX 01 00:56:22
  TRACK 56 AUDIO
    TITLE "10:cjc026_12000"
    INDEX 01 00:56:57
  TRACK 57 AUDIO
    TITLE "0:"
    INDEX 01 00:58:15
  TRACK 58 AUDIO
    TITLE "11:cjc026_12001"
    INDEX 01 00:58:48
  TRACK 59 AUDIO
    TITLE "0:"
    INDEX 01 01:00:19
  TRACK 60 AUDIO
    TITLE "12:cjc026_12002"
    INDEX 01 01:00:49
  TRACK 61 AUDIO
    TITLE "0:"
    INDEX 01 01:02:07
  TRACK 62 AUDIO
    TITLE "10:cjc026_12003"
    INDEX 01 01:02:42
  TRACK 63 AUDIO
    TITLE "0:"
    INDEX 01 01:03:48
  TRACK 64 AUDIO
    TITLE "11:cjc026_12004"
    INDEX 01 01:04:08
  TRACK 65 AUDIO
    TITLE "0:"
    INDEX 01 01:05:44
  TRACK 66 AUDIO
    TITLE "12:cjc026_12005"
    INDEX 01 01:06:01
  TRACK 67 AUDIO
    TITLE "0:"
    INDEX 01 01:06:74
  TRACK 68 AUDIO
    TITLE "10:cjc026_12006"
    INDEX 01 01:07:40
  TRACK 69 AUDIO
    TITLE "0:"
    INDEX 01 01:09:09
  TRACK 70 AUDIO
    TITLE "11:cjc026_12007"
    INDEX 01 01:09:44
  TRACK 71 AUDIO
    TITLE "0:"
    INDEX 01 01:10:66
  TRACK 72 AUDIO
    TITLE "12:cjc026_12008"
    INDEX 01 01:11:21
  TRACK 73 AUDIO
    TITLE "0:"
    INDEX 01 01:12:64
  TRACK 74 AUDIO
    TITLE "10:cjc026_12009"
    INDEX 01 01:13:22
  TRACK 75 AUDIO
    TITLE "0:"
    INDEX 01 01:14:74
  TRACK 76 AUDIO
    TITLE "11:cjc026_12010"
    INDEX 01 01:15:28
  TRACK 77 AUDIO
    TITLE "0:"
    INDEX 01 01:17:30
  TRACK 78 AUDIO
    TITLE "12:cjc026_12011"
    INDEX 01 01:17:65
  TRACK 79 AUDIO
    TITLE "0:"
    INDEX 01 01:19:44
  TRACK 80 AUDIO
    TITLE "10:cjc026_12012"
    INDEX 01 01:19:74
  TRACK 81 AUDIO
    TITLE "0:"
    INDEX 01 01:21:40
  TRACK 82 AUDIO
    TITLE "11:cjc026_12013"
    INDEX 01 01:21:72
  TRACK 83 AUDIO
    TITLE "0:"
    INDEX 01 01:23:22
  TRACK 84 AUDIO
    TITLE "12:cjc026_12014"
    INDEX 01 01:23:55
  TRACK 85 AUDIO
    TITLE "0:"
    INDEX 01 01:25:21
  TRACK 86 AUDIO
    TITLE "10:cjc026_12015"
    INDEX 01 01:25:53
  TRACK 87 AUDIO
    TITLE "0:"
    INDEX 01 01:26:73
  TRACK 88 AUDIO
    TITLE "11:cjc026_12016"
    INDEX 01 01:27:33
  TRACK 89 AUDIO
    TITLE "0:"
    INDEX 01 01:28:52
  TRACK 90 AUDIO
    TITLE "12:cjc026_12017"
    INDEX 01 01:29:10
  TRACK 91 AUDIO
    TITLE "0:"
    INDEX 01 01:30:29
  TRACK 92 AUDIO
    TITLE "10:cjc026_12018"
    INDEX 01 01:30:64
  TRACK 93 AUDIO
    TITLE "0:"
    INDEX 01 01:32:22
  TRACK 94 AUDIO
    TITLE "11:cjc026_12019"
    INDEX 01 01:32:57
  TRACK 95 AUDIO
    TITLE "0:"
    INDEX 01 01:34:21
  TRACK 96 AUDIO
    TITLE "12:cjc026_12020"
    INDEX 01 01:34:53
  TRACK 97 AUDIO
    TITLE "0:"
    INDEX 01 01:36:14
